Coordinates
version=1
nRows=11
nColumns=33
inDegrees=yes

Units are S.I. units (second, meters, Newtons, ...)
Angles are in degrees.

endheader
time	ground_thorax_rot_x	ground_thorax_rot_y	ground_thorax_rot_z	ground_thorax_tx	ground_thorax_ty	ground_thorax_tz	clav_prot_r	clav_elev_r	scapula_abduction_r	scapula_elevation_r	scapula_upward_rot_r	scapula_winging_r	shoulder_elv_r	plane_of_elev_r	axial_rot_r	elbow_flexion_r	pro_sup_r	wrist_flex_r	wrist_dev_r	clav_prot_l	clav_elev_l	scapula_abduction_l	scapula_elevation_l	scapula_upward_rot_l	scapula_winging_l	shoulder_elv_l	plane_of_elev_l	axial_rot_l	elbow_flexion_l	pro_sup_l	wrist_flex_l	wrist_dev_l	
6.9000	-40.901979	-9.830710	6.302171	-221.681171	849.438049	-4.721348	10.176064	-45.000000	33.436520	-45.000000	-45.000000	1699.895638	-1190.997770	151.690431	-88.103927	-706.976168	41.655445	18.420605	7.009924	15.114781	38.336659	-35.051340	-45.000000	-45.000000	-995.894944	-2809.623456	18.909866	-47.144425	369.622999	29.859940	9.785545	-22.178736	
6.9100	-40.911094	-9.590793	6.253496	-222.705143	851.393037	-4.706952	10.081297	-45.000000	33.439065	-45.000000	-44.999999	1699.785393	-1190.926656	151.615322	-88.467496	-706.859566	41.513381	18.348933	6.978437	15.055263	38.384368	-35.071267	-45.000000	-45.000000	-995.759706	-2809.548393	18.844356	-47.524007	369.854849	31.004360	9.587033	-22.319226	
6.9200	-40.923328	-9.345745	6.212616	-223.647879	853.315033	-4.691468	9.944489	-45.000000	33.428212	-45.000000	-44.999999	1699.689344	-1190.850339	151.557219	-88.874205	-706.746894	41.394046	18.267388	6.955197	14.971909	38.477415	-35.107847	-45.000000	-45.000000	-995.622005	-2809.469077	18.785768	-47.962189	370.088043	32.078775	9.408269	-22.467850	
6.9300	-40.936488	-9.123175	6.158128	-224.409649	855.168446	-4.669195	9.902057	-45.000000	33.454275	-45.000000	-44.999998	1699.597200	-1190.790687	151.465367	-89.184172	-706.629514	41.330232	18.228673	6.896613	14.937444	38.476035	-35.119563	-45.000000	-45.000000	-995.515933	-2809.414051	18.749738	-48.127250	370.252542	32.949159	9.243555	-22.557810	
6.9400	-40.952124	-8.908598	6.092101	-224.982484	856.944915	-4.643865	9.897542	-45.000000	33.495805	-45.000000	-44.999996	1699.517218	-1190.741042	151.353382	-89.467175	-706.510832	41.323194	18.207859	6.815300	14.921198	38.447178	-35.133511	-45.000000	-45.000000	-995.426787	-2809.373968	18.729828	-48.170761	370.377211	33.629827	9.102659	-22.616602	
6.9500	-40.969287	-8.721871	6.036301	-225.345805	858.631724	-4.617863	9.920671	-45.000000	33.551558	-45.000000	-44.999993	1699.455230	-1190.687091	151.238972	-89.722319	-706.386936	41.381183	18.209641	6.723464	14.926890	38.399681	-35.137393	-45.000000	-45.000000	-995.354314	-2809.340225	18.721491	-48.105350	370.467910	34.114441	8.981742	-22.644947	
6.9600	-40.992393	-8.552869	5.988703	-225.504491	860.224311	-4.594901	9.952140	-45.000000	33.610621	-45.000000	-44.999987	1699.410800	-1190.633715	151.122930	-89.980849	-706.260884	41.504278	18.218078	6.621545	14.938705	38.355656	-35.149777	-45.000000	-45.000000	-995.286958	-2809.306428	18.721397	-48.004344	370.534970	34.432149	8.883636	-22.656160	
6.9700	-41.021680	-8.402681	5.959140	-225.475446	861.722959	-4.577892	9.973901	-45.000000	33.662996	-45.000000	-44.999977	1699.385058	-1190.571542	151.015531	-90.255468	-706.130746	41.688743	18.229047	6.521634	14.952589	38.333135	-35.173696	-45.000000	-45.000000	-995.221960	-2809.260998	18.721913	-47.919023	370.594471	34.626024	8.801223	-22.660909	
6.9800	-41.054970	-8.265170	5.934382	-225.276200	863.129827	-4.567355	9.990774	-45.000000	33.717606	-45.000000	-44.999959	1699.374286	-1190.504052	150.904257	-90.544021	-705.994545	41.928767	18.239940	6.417978	14.968873	38.311510	-35.216849	-45.000000	-45.000000	-995.149444	-2809.216419	18.729120	-47.845704	370.647628	34.733256	8.729509	-22.659695	
6.9900	-41.092309	-8.142904	5.920871	-224.925245	864.449548	-4.561628	10.007430	-45.000000	33.772794	-45.000000	-44.999927	1699.374328	-1190.428635	150.792692	-90.839885	-705.850614	42.217500	18.254682	6.317086	14.987470	38.301165	-35.271054	-45.000000	-45.000000	-995.078699	-2809.158794	18.737223	-47.777340	370.702971	34.790839	8.661038	-22.656447	
7.0000	-41.134504	-8.033268	5.914553	-224.441431	865.688755	-4.557460	10.012550	-45.000000	33.826447	-45.000000	-44.999869	1699.392623	-1190.343545	150.686084	-91.142726	-705.701334	42.548516	18.271623	6.219455	15.006089	38.281300	-35.340466	-45.000000	-45.000000	-994.997792	-2809.100038	18.758465	-47.718693	370.750058	34.833076	8.595092	-22.648999	
